M48
; DRILL file {KiCad 8.0.1} date 2024-05-23T20:01:43-0600
; FORMAT={-:-/ absolute / inch / decimal}
; #@! TF.CreationDate,2024-05-23T20:01:43-06:00
; #@! TF.GenerationSoftware,Kicad,Pcbnew,8.0.1
; #@! TF.FileFunction,Plated,1,2,PTH
FMAT,2
INCH
; #@! TA.AperFunction,Plated,PTH,ViaDrill
T1C0.0118
; #@! TA.AperFunction,Plated,PTH,ComponentDrill
T2C0.0600
%
G90
G05
T1
X3.281Y-4.3122
X3.281Y-4.4372
X3.3123Y-4.5622
X3.3435Y-4.2185
X3.6248Y-3.4373
X3.631Y-4.9059
X3.7185Y-4.1872
X3.7185Y-4.8122
X3.7498Y-4.156
X3.781Y-5.5621
X3.8123Y-4.2497
X3.8123Y-4.5935
X3.8748Y-4.0622
X3.8748Y-6.3146
X3.9043Y-4.0939
X3.9685Y-4.0935
X3.9997Y-4.656
X4.156Y-4.7809
X4.1872Y-4.8434
X4.2185Y-4.7809
X4.281Y-4.7809
X4.3435Y-4.7809
X4.406Y-4.031
X4.406Y-4.7809
X4.4997Y-4.7497
X4.531Y-4.1247
X4.5622Y-4.5647
X4.5675Y-4.6612
X4.5935Y-3.6873
X4.6247Y-4.9997
X4.6247Y-5.0622
X4.6872Y-4.156
X4.7185Y-4.7809
X4.7497Y-4.1247
X4.8122Y-4.4685
X5.0622Y-4.2185
X5.2497Y-4.9684
X5.4121Y-5.0622
X6.1621Y-4.9997
X6.9121Y-4.9684
X7.4745Y-4.2185
X8.2245Y-4.2497
X8.9744Y-4.281
X9.7244Y-4.3122
X10.4743Y-4.3435
X11.2243Y-4.3747
X11.9742Y-4.406
X12.7242Y-4.156
X13.4741Y-3.656
T2
X3.3498Y-3.1185
X3.4435Y-6.1184
X3.5373Y-3.8685
X3.5998Y-3.0185
X3.631Y-4.6185
X3.6935Y-6.0184
X3.7248Y-5.3684
X3.7873Y-3.7685
X3.881Y-4.5185
X3.9748Y-5.2684
X4.0997Y-3.1185
X4.3497Y-3.0185
X4.381Y-6.1184
X4.4747Y-3.8685
X4.631Y-6.0184
X4.6622Y-4.6185
X4.7247Y-3.7685
X4.8497Y-3.1185
X4.8497Y-5.3684
X4.9122Y-4.5185
X5.0997Y-3.0185
X5.0997Y-5.2684
X5.2247Y-3.8685
X5.3184Y-6.1184
X5.4121Y-4.6185
X5.4747Y-3.7685
X5.5684Y-6.0184
X5.5996Y-3.1185
X5.5996Y-5.3684
X5.6621Y-4.5185
X5.8496Y-3.0185
X5.8496Y-5.2684
X5.9746Y-3.8685
X6.1621Y-4.6185
X6.2246Y-3.7685
X6.3496Y-3.1185
X6.3496Y-5.3684
X6.4121Y-4.5185
X6.5996Y-3.0185
X6.5996Y-5.2684
X6.6308Y-6.1184
X6.7246Y-3.8685
X6.8808Y-6.0184
X6.9121Y-4.6185
X6.9746Y-3.7685
X7.0995Y-3.1185
X7.0995Y-5.3684
X7.1621Y-4.5185
X7.3495Y-3.0185
X7.3495Y-5.2684
X7.4745Y-3.8685
X7.662Y-4.6185
X7.7245Y-3.7685
X7.8495Y-3.1185
X7.8495Y-5.3684
X7.8495Y-6.1184
X7.912Y-4.5185
X8.0995Y-3.0185
X8.0995Y-5.2684
X8.0995Y-6.0184
X8.2245Y-3.8685
X8.412Y-4.6185
X8.4745Y-3.7685
X8.5994Y-3.1185
X8.5994Y-5.3684
X8.662Y-4.5185
X8.8494Y-3.0185
X8.8494Y-5.2684
X8.9744Y-3.8685
X9.1619Y-4.6185
X9.2244Y-3.7685
X9.3494Y-3.1185
X9.3494Y-5.3684
X9.3494Y-6.1184
X9.4119Y-4.5185
X9.5994Y-3.0185
X9.5994Y-5.2684
X9.5994Y-6.0184
X9.7244Y-3.8685
X9.9119Y-4.6185
X9.9744Y-3.7685
X10.0994Y-3.1185
X10.0994Y-5.3684
X10.1619Y-4.5185
X10.3494Y-3.0185
X10.3494Y-5.2684
X10.4743Y-3.8685
X10.6618Y-4.6185
X10.7243Y-3.7685
X10.8493Y-3.1185
X10.8493Y-5.3684
X10.8493Y-6.1184
X10.9118Y-4.5185
X11.0993Y-3.0185
X11.0993Y-5.2684
X11.0993Y-6.0184
X11.2243Y-3.8685
X11.4118Y-4.6185
X11.4743Y-3.7685
X11.5993Y-3.1185
X11.5993Y-5.3684
X11.5993Y-6.1184
X11.6618Y-4.5185
X11.8493Y-3.0185
X11.8493Y-5.2684
X11.8493Y-6.0184
X11.9742Y-3.8685
X12.1617Y-4.6185
X12.2242Y-3.7685
X12.3492Y-3.1185
X12.3492Y-5.3684
X12.3492Y-6.1184
X12.4117Y-4.5185
X12.5992Y-3.0185
X12.5992Y-5.2684
X12.5992Y-6.0184
X12.7242Y-3.8685
X12.9742Y-3.7685
X13.0992Y-5.3684
X13.0992Y-6.1184
X13.3492Y-5.2684
X13.3492Y-6.0184
X13.3804Y-4.6185
X13.4741Y-3.1185
X13.6304Y-4.5185
X13.6616Y-3.8685
X13.7241Y-3.0185
X13.8491Y-5.3684
X13.8491Y-6.1184
X13.9116Y-3.7685
X14.0991Y-5.2684
X14.0991Y-6.0184
M30
