M48
; DRILL file {KiCad 8.0.1} date 2024-05-23T20:01:43-0600
; FORMAT={-:-/ absolute / inch / decimal}
; #@! TF.CreationDate,2024-05-23T20:01:43-06:00
; #@! TF.GenerationSoftware,Kicad,Pcbnew,8.0.1
; #@! TF.FileFunction,NonPlated,1,2,NPTH
FMAT,2
INCH
; #@! TA.AperFunction,NonPlated,NPTH,ComponentDrill
T1C0.0689
; #@! TA.AperFunction,NonPlated,NPTH,ComponentDrill
T2C0.1200
; #@! TA.AperFunction,NonPlated,NPTH,ComponentDrill
T3C0.1570
%
G90
G05
T1
X3.2998Y-3.2185
X3.3935Y-6.2184
X3.4873Y-3.9685
X3.581Y-4.7185
X3.6748Y-5.4684
X3.6998Y-3.2185
X3.7935Y-6.2184
X3.8873Y-3.9685
X3.981Y-4.7185
X4.0497Y-3.2185
X4.0748Y-5.4684
X4.331Y-6.2184
X4.4247Y-3.9685
X4.4497Y-3.2185
X4.6122Y-4.7185
X4.731Y-6.2184
X4.7997Y-3.2185
X4.7997Y-5.4684
X4.8247Y-3.9685
X5.0122Y-4.7185
X5.1747Y-3.9685
X5.1997Y-3.2185
X5.1997Y-5.4684
X5.2684Y-6.2184
X5.3621Y-4.7185
X5.5496Y-3.2185
X5.5496Y-5.4684
X5.5747Y-3.9685
X5.6684Y-6.2184
X5.7621Y-4.7185
X5.9246Y-3.9685
X5.9496Y-3.2185
X5.9496Y-5.4684
X6.1121Y-4.7185
X6.2996Y-3.2185
X6.2996Y-5.4684
X6.3246Y-3.9685
X6.5121Y-4.7185
X6.5808Y-6.2184
X6.6746Y-3.9685
X6.6996Y-3.2185
X6.6996Y-5.4684
X6.8621Y-4.7185
X6.9808Y-6.2184
X7.0495Y-3.2185
X7.0495Y-5.4684
X7.0746Y-3.9685
X7.2621Y-4.7185
X7.4245Y-3.9685
X7.4495Y-3.2185
X7.4495Y-5.4684
X7.612Y-4.7185
X7.7995Y-3.2185
X7.7995Y-5.4684
X7.7995Y-6.2184
X7.8245Y-3.9685
X8.012Y-4.7185
X8.1745Y-3.9685
X8.1995Y-3.2185
X8.1995Y-5.4684
X8.1995Y-6.2184
X8.362Y-4.7185
X8.5494Y-3.2185
X8.5494Y-5.4684
X8.5745Y-3.9685
X8.762Y-4.7185
X8.9244Y-3.9685
X8.9494Y-3.2185
X8.9494Y-5.4684
X9.1119Y-4.7185
X9.2994Y-3.2185
X9.2994Y-5.4684
X9.2994Y-6.2184
X9.3244Y-3.9685
X9.5119Y-4.7185
X9.6744Y-3.9685
X9.6994Y-3.2185
X9.6994Y-5.4684
X9.6994Y-6.2184
X9.8619Y-4.7185
X10.0494Y-3.2185
X10.0494Y-5.4684
X10.0744Y-3.9685
X10.2619Y-4.7185
X10.4243Y-3.9685
X10.4494Y-3.2185
X10.4494Y-5.4684
X10.6118Y-4.7185
X10.7993Y-3.2185
X10.7993Y-5.4684
X10.7993Y-6.2184
X10.8243Y-3.9685
X11.0118Y-4.7185
X11.1743Y-3.9685
X11.1993Y-3.2185
X11.1993Y-5.4684
X11.1993Y-6.2184
X11.3618Y-4.7185
X11.5493Y-3.2185
X11.5493Y-5.4684
X11.5493Y-6.2184
X11.5743Y-3.9685
X11.7618Y-4.7185
X11.9242Y-3.9685
X11.9493Y-3.2185
X11.9493Y-5.4684
X11.9493Y-6.2184
X12.1117Y-4.7185
X12.2992Y-3.2185
X12.2992Y-5.4684
X12.2992Y-6.2184
X12.3242Y-3.9685
X12.5117Y-4.7185
X12.6742Y-3.9685
X12.6992Y-3.2185
X12.6992Y-5.4684
X12.6992Y-6.2184
X13.0492Y-5.4684
X13.0492Y-6.2184
X13.0742Y-3.9685
X13.3304Y-4.7185
X13.4241Y-3.2185
X13.4492Y-5.4684
X13.4492Y-6.2184
X13.6116Y-3.9685
X13.7304Y-4.7185
X13.7991Y-5.4684
X13.7991Y-6.2184
X13.8241Y-3.2185
X14.0116Y-3.9685
X14.1991Y-5.4684
X14.1991Y-6.2184
T2
X3.406Y-5.7434
X4.3435Y-5.7434
X6.3121Y-6.4934
X7.2496Y-6.4934
X8.7494Y-6.4934
X10.2494Y-6.4934
X13.0616Y-4.9935
X13.1554Y-2.9435
X13.9991Y-4.9935
X14.0929Y-2.9435
T3
X3.406Y-5.1434
X3.4998Y-3.2185
X3.5935Y-6.2184
X3.6873Y-3.9685
X3.781Y-4.7185
X3.8748Y-5.4684
X4.2497Y-3.2185
X4.3435Y-5.1434
X4.531Y-6.2184
X4.6247Y-3.9685
X4.8122Y-4.7185
X4.9997Y-3.2185
X4.9997Y-5.4684
X5.3747Y-3.9685
X5.4684Y-6.2184
X5.5621Y-4.7185
X5.7496Y-3.2185
X5.7496Y-5.4684
X6.1246Y-3.9685
X6.3121Y-5.8934
X6.3121Y-4.7185
X6.4996Y-3.2185
X6.4996Y-5.4684
X6.7808Y-6.2184
X6.8746Y-3.9685
X7.0621Y-4.7185
X7.2495Y-3.2185
X7.2495Y-5.4684
X7.2496Y-5.8934
X7.6245Y-3.9685
X7.812Y-4.7185
X7.9995Y-3.2185
X7.9995Y-5.4684
X7.9995Y-6.2184
X8.3745Y-3.9685
X8.562Y-4.7185
X8.7494Y-5.8934
X8.7494Y-3.2185
X8.7494Y-5.4684
X9.1244Y-3.9685
X9.3119Y-4.7185
X9.4994Y-3.2185
X9.4994Y-5.4684
X9.4994Y-6.2184
X9.8744Y-3.9685
X10.0619Y-4.7185
X10.2494Y-3.2185
X10.2494Y-5.4684
X10.2494Y-5.8934
X10.6243Y-3.9685
X10.8118Y-4.7185
X10.9993Y-3.2185
X10.9993Y-5.4684
X10.9993Y-6.2184
X11.3743Y-3.9685
X11.5618Y-4.7185
X11.7493Y-3.2185
X11.7493Y-5.4684
X11.7493Y-6.2184
X12.1242Y-3.9685
X12.3117Y-4.7185
X12.4992Y-3.2185
X12.4992Y-5.4684
X12.4992Y-6.2184
X12.8742Y-3.9685
X13.0616Y-4.3935
X13.1554Y-3.5435
X13.2492Y-5.4684
X13.2492Y-6.2184
X13.5304Y-4.7185
X13.6241Y-3.2185
X13.8116Y-3.9685
X13.9991Y-5.4684
X13.9991Y-6.2184
X13.9991Y-4.3935
X14.0929Y-3.5435
M30
