%TF.GenerationSoftware,KiCad,Pcbnew,8.0.1*%
%TF.CreationDate,2024-05-23T20:01:40-06:00*%
%TF.ProjectId,60_Keyboard,36305f4b-6579-4626-9f61-72642e6b6963,rev?*%
%TF.SameCoordinates,Original*%
%TF.FileFunction,Profile,NP*%
%FSLAX46Y46*%
G04 Gerber Fmt 4.6, Leading zero omitted, Abs format (unit mm)*
G04 Created by KiCad (PCBNEW 8.0.1) date 2024-05-23 20:01:40*
%MOMM*%
%LPD*%
G01*
G04 APERTURE LIST*
%TA.AperFunction,Profile*%
%ADD10C,0.050000*%
%TD*%
G04 APERTURE END LIST*
D10*
X365102000Y-166677000D02*
G75*
G02*
X364308300Y-167470700I-793700J0D01*
G01*
X364308300Y-72226700D02*
G75*
G02*
X365102000Y-73020400I0J-793700D01*
G01*
X364308300Y-167470700D02*
X80163700Y-167470700D01*
X365102000Y-73020400D02*
X365102000Y-166677000D01*
X266345800Y-129373100D02*
G75*
G02*
X263845800Y-129373100I-1250000J0D01*
G01*
X263845800Y-129373100D02*
G75*
G02*
X266345800Y-129373100I1250000J0D01*
G01*
X79370000Y-73020400D02*
X79370000Y-166677000D01*
X364764600Y-165883300D02*
G75*
G02*
X362264600Y-165883300I-1250000J0D01*
G01*
X362264600Y-165883300D02*
G75*
G02*
X364764600Y-165883300I1250000J0D01*
G01*
X364764600Y-73814100D02*
G75*
G02*
X362264600Y-73814100I-1250000J0D01*
G01*
X362264600Y-73814100D02*
G75*
G02*
X364764600Y-73814100I1250000J0D01*
G01*
X82207400Y-165883300D02*
G75*
G02*
X79707400Y-165883300I-1250000J0D01*
G01*
X79707400Y-165883300D02*
G75*
G02*
X82207400Y-165883300I1250000J0D01*
G01*
X80163700Y-167470700D02*
G75*
G02*
X79370000Y-166677000I0J793700D01*
G01*
X82207400Y-73814100D02*
G75*
G02*
X79707400Y-73814100I-1250000J0D01*
G01*
X79707400Y-73814100D02*
G75*
G02*
X82207400Y-73814100I1250000J0D01*
G01*
X80163700Y-72226700D02*
X364308300Y-72226700D01*
X185388400Y-99212500D02*
G75*
G02*
X182888400Y-99212500I-1250000J0D01*
G01*
X182888400Y-99212500D02*
G75*
G02*
X185388400Y-99212500I1250000J0D01*
G01*
X79370000Y-73020400D02*
G75*
G02*
X80163700Y-72226700I793700J0D01*
G01*
M02*
