%TF.GenerationSoftware,KiCad,Pcbnew,8.0.1*%
%TF.CreationDate,2024-05-23T20:01:39-06:00*%
%TF.ProjectId,60_Keyboard,36305f4b-6579-4626-9f61-72642e6b6963,rev?*%
%TF.SameCoordinates,Original*%
%TF.FileFunction,Legend,Top*%
%TF.FilePolarity,Positive*%
%FSLAX46Y46*%
G04 Gerber Fmt 4.6, Leading zero omitted, Abs format (unit mm)*
G04 Created by KiCad (PCBNEW 8.0.1) date 2024-05-23 20:01:39*
%MOMM*%
%LPD*%
G01*
G04 APERTURE LIST*
%ADD10C,0.150000*%
%ADD11C,0.100000*%
G04 APERTURE END LIST*
D10*
X251939679Y-158609819D02*
X251939679Y-157609819D01*
X251939679Y-157609819D02*
X252177774Y-157609819D01*
X252177774Y-157609819D02*
X252320631Y-157657438D01*
X252320631Y-157657438D02*
X252415869Y-157752676D01*
X252415869Y-157752676D02*
X252463488Y-157847914D01*
X252463488Y-157847914D02*
X252511107Y-158038390D01*
X252511107Y-158038390D02*
X252511107Y-158181247D01*
X252511107Y-158181247D02*
X252463488Y-158371723D01*
X252463488Y-158371723D02*
X252415869Y-158466961D01*
X252415869Y-158466961D02*
X252320631Y-158562200D01*
X252320631Y-158562200D02*
X252177774Y-158609819D01*
X252177774Y-158609819D02*
X251939679Y-158609819D01*
X253320631Y-158562200D02*
X253225393Y-158609819D01*
X253225393Y-158609819D02*
X253034917Y-158609819D01*
X253034917Y-158609819D02*
X252939679Y-158562200D01*
X252939679Y-158562200D02*
X252892060Y-158466961D01*
X252892060Y-158466961D02*
X252892060Y-158086009D01*
X252892060Y-158086009D02*
X252939679Y-157990771D01*
X252939679Y-157990771D02*
X253034917Y-157943152D01*
X253034917Y-157943152D02*
X253225393Y-157943152D01*
X253225393Y-157943152D02*
X253320631Y-157990771D01*
X253320631Y-157990771D02*
X253368250Y-158086009D01*
X253368250Y-158086009D02*
X253368250Y-158181247D01*
X253368250Y-158181247D02*
X252892060Y-158276485D01*
X253749203Y-158562200D02*
X253844441Y-158609819D01*
X253844441Y-158609819D02*
X254034917Y-158609819D01*
X254034917Y-158609819D02*
X254130155Y-158562200D01*
X254130155Y-158562200D02*
X254177774Y-158466961D01*
X254177774Y-158466961D02*
X254177774Y-158419342D01*
X254177774Y-158419342D02*
X254130155Y-158324104D01*
X254130155Y-158324104D02*
X254034917Y-158276485D01*
X254034917Y-158276485D02*
X253892060Y-158276485D01*
X253892060Y-158276485D02*
X253796822Y-158228866D01*
X253796822Y-158228866D02*
X253749203Y-158133628D01*
X253749203Y-158133628D02*
X253749203Y-158086009D01*
X253749203Y-158086009D02*
X253796822Y-157990771D01*
X253796822Y-157990771D02*
X253892060Y-157943152D01*
X253892060Y-157943152D02*
X254034917Y-157943152D01*
X254034917Y-157943152D02*
X254130155Y-157990771D01*
X254606346Y-158609819D02*
X254606346Y-157943152D01*
X254606346Y-157609819D02*
X254558727Y-157657438D01*
X254558727Y-157657438D02*
X254606346Y-157705057D01*
X254606346Y-157705057D02*
X254653965Y-157657438D01*
X254653965Y-157657438D02*
X254606346Y-157609819D01*
X254606346Y-157609819D02*
X254606346Y-157705057D01*
X255511107Y-157943152D02*
X255511107Y-158752676D01*
X255511107Y-158752676D02*
X255463488Y-158847914D01*
X255463488Y-158847914D02*
X255415869Y-158895533D01*
X255415869Y-158895533D02*
X255320631Y-158943152D01*
X255320631Y-158943152D02*
X255177774Y-158943152D01*
X255177774Y-158943152D02*
X255082536Y-158895533D01*
X255511107Y-158562200D02*
X255415869Y-158609819D01*
X255415869Y-158609819D02*
X255225393Y-158609819D01*
X255225393Y-158609819D02*
X255130155Y-158562200D01*
X255130155Y-158562200D02*
X255082536Y-158514580D01*
X255082536Y-158514580D02*
X255034917Y-158419342D01*
X255034917Y-158419342D02*
X255034917Y-158133628D01*
X255034917Y-158133628D02*
X255082536Y-158038390D01*
X255082536Y-158038390D02*
X255130155Y-157990771D01*
X255130155Y-157990771D02*
X255225393Y-157943152D01*
X255225393Y-157943152D02*
X255415869Y-157943152D01*
X255415869Y-157943152D02*
X255511107Y-157990771D01*
X255987298Y-157943152D02*
X255987298Y-158609819D01*
X255987298Y-158038390D02*
X256034917Y-157990771D01*
X256034917Y-157990771D02*
X256130155Y-157943152D01*
X256130155Y-157943152D02*
X256273012Y-157943152D01*
X256273012Y-157943152D02*
X256368250Y-157990771D01*
X256368250Y-157990771D02*
X256415869Y-158086009D01*
X256415869Y-158086009D02*
X256415869Y-158609819D01*
X257273012Y-158562200D02*
X257177774Y-158609819D01*
X257177774Y-158609819D02*
X256987298Y-158609819D01*
X256987298Y-158609819D02*
X256892060Y-158562200D01*
X256892060Y-158562200D02*
X256844441Y-158466961D01*
X256844441Y-158466961D02*
X256844441Y-158086009D01*
X256844441Y-158086009D02*
X256892060Y-157990771D01*
X256892060Y-157990771D02*
X256987298Y-157943152D01*
X256987298Y-157943152D02*
X257177774Y-157943152D01*
X257177774Y-157943152D02*
X257273012Y-157990771D01*
X257273012Y-157990771D02*
X257320631Y-158086009D01*
X257320631Y-158086009D02*
X257320631Y-158181247D01*
X257320631Y-158181247D02*
X256844441Y-158276485D01*
X258177774Y-158609819D02*
X258177774Y-157609819D01*
X258177774Y-158562200D02*
X258082536Y-158609819D01*
X258082536Y-158609819D02*
X257892060Y-158609819D01*
X257892060Y-158609819D02*
X257796822Y-158562200D01*
X257796822Y-158562200D02*
X257749203Y-158514580D01*
X257749203Y-158514580D02*
X257701584Y-158419342D01*
X257701584Y-158419342D02*
X257701584Y-158133628D01*
X257701584Y-158133628D02*
X257749203Y-158038390D01*
X257749203Y-158038390D02*
X257796822Y-157990771D01*
X257796822Y-157990771D02*
X257892060Y-157943152D01*
X257892060Y-157943152D02*
X258082536Y-157943152D01*
X258082536Y-157943152D02*
X258177774Y-157990771D01*
X259749203Y-158086009D02*
X259892060Y-158133628D01*
X259892060Y-158133628D02*
X259939679Y-158181247D01*
X259939679Y-158181247D02*
X259987298Y-158276485D01*
X259987298Y-158276485D02*
X259987298Y-158419342D01*
X259987298Y-158419342D02*
X259939679Y-158514580D01*
X259939679Y-158514580D02*
X259892060Y-158562200D01*
X259892060Y-158562200D02*
X259796822Y-158609819D01*
X259796822Y-158609819D02*
X259415870Y-158609819D01*
X259415870Y-158609819D02*
X259415870Y-157609819D01*
X259415870Y-157609819D02*
X259749203Y-157609819D01*
X259749203Y-157609819D02*
X259844441Y-157657438D01*
X259844441Y-157657438D02*
X259892060Y-157705057D01*
X259892060Y-157705057D02*
X259939679Y-157800295D01*
X259939679Y-157800295D02*
X259939679Y-157895533D01*
X259939679Y-157895533D02*
X259892060Y-157990771D01*
X259892060Y-157990771D02*
X259844441Y-158038390D01*
X259844441Y-158038390D02*
X259749203Y-158086009D01*
X259749203Y-158086009D02*
X259415870Y-158086009D01*
X260320632Y-157943152D02*
X260558727Y-158609819D01*
X260796822Y-157943152D02*
X260558727Y-158609819D01*
X260558727Y-158609819D02*
X260463489Y-158847914D01*
X260463489Y-158847914D02*
X260415870Y-158895533D01*
X260415870Y-158895533D02*
X260320632Y-158943152D01*
X262415870Y-158609819D02*
X261939680Y-158609819D01*
X261939680Y-158609819D02*
X261939680Y-157609819D01*
X263177775Y-157943152D02*
X263177775Y-158609819D01*
X262749204Y-157943152D02*
X262749204Y-158466961D01*
X262749204Y-158466961D02*
X262796823Y-158562200D01*
X262796823Y-158562200D02*
X262892061Y-158609819D01*
X262892061Y-158609819D02*
X263034918Y-158609819D01*
X263034918Y-158609819D02*
X263130156Y-158562200D01*
X263130156Y-158562200D02*
X263177775Y-158514580D01*
X264082537Y-158562200D02*
X263987299Y-158609819D01*
X263987299Y-158609819D02*
X263796823Y-158609819D01*
X263796823Y-158609819D02*
X263701585Y-158562200D01*
X263701585Y-158562200D02*
X263653966Y-158514580D01*
X263653966Y-158514580D02*
X263606347Y-158419342D01*
X263606347Y-158419342D02*
X263606347Y-158133628D01*
X263606347Y-158133628D02*
X263653966Y-158038390D01*
X263653966Y-158038390D02*
X263701585Y-157990771D01*
X263701585Y-157990771D02*
X263796823Y-157943152D01*
X263796823Y-157943152D02*
X263987299Y-157943152D01*
X263987299Y-157943152D02*
X264082537Y-157990771D01*
X264511109Y-158609819D02*
X264511109Y-157943152D01*
X264511109Y-157609819D02*
X264463490Y-157657438D01*
X264463490Y-157657438D02*
X264511109Y-157705057D01*
X264511109Y-157705057D02*
X264558728Y-157657438D01*
X264558728Y-157657438D02*
X264511109Y-157609819D01*
X264511109Y-157609819D02*
X264511109Y-157705057D01*
X265368251Y-158562200D02*
X265273013Y-158609819D01*
X265273013Y-158609819D02*
X265082537Y-158609819D01*
X265082537Y-158609819D02*
X264987299Y-158562200D01*
X264987299Y-158562200D02*
X264939680Y-158466961D01*
X264939680Y-158466961D02*
X264939680Y-158086009D01*
X264939680Y-158086009D02*
X264987299Y-157990771D01*
X264987299Y-157990771D02*
X265082537Y-157943152D01*
X265082537Y-157943152D02*
X265273013Y-157943152D01*
X265273013Y-157943152D02*
X265368251Y-157990771D01*
X265368251Y-157990771D02*
X265415870Y-158086009D01*
X265415870Y-158086009D02*
X265415870Y-158181247D01*
X265415870Y-158181247D02*
X264939680Y-158276485D01*
X265844442Y-157943152D02*
X265844442Y-158609819D01*
X265844442Y-158038390D02*
X265892061Y-157990771D01*
X265892061Y-157990771D02*
X265987299Y-157943152D01*
X265987299Y-157943152D02*
X266130156Y-157943152D01*
X266130156Y-157943152D02*
X266225394Y-157990771D01*
X266225394Y-157990771D02*
X266273013Y-158086009D01*
X266273013Y-158086009D02*
X266273013Y-158609819D01*
X267987299Y-158609819D02*
X267511109Y-158609819D01*
X267511109Y-158609819D02*
X267511109Y-157609819D01*
X268701585Y-158562200D02*
X268606347Y-158609819D01*
X268606347Y-158609819D02*
X268415871Y-158609819D01*
X268415871Y-158609819D02*
X268320633Y-158562200D01*
X268320633Y-158562200D02*
X268273014Y-158466961D01*
X268273014Y-158466961D02*
X268273014Y-158086009D01*
X268273014Y-158086009D02*
X268320633Y-157990771D01*
X268320633Y-157990771D02*
X268415871Y-157943152D01*
X268415871Y-157943152D02*
X268606347Y-157943152D01*
X268606347Y-157943152D02*
X268701585Y-157990771D01*
X268701585Y-157990771D02*
X268749204Y-158086009D01*
X268749204Y-158086009D02*
X268749204Y-158181247D01*
X268749204Y-158181247D02*
X268273014Y-158276485D01*
X269558728Y-158562200D02*
X269463490Y-158609819D01*
X269463490Y-158609819D02*
X269273014Y-158609819D01*
X269273014Y-158609819D02*
X269177776Y-158562200D01*
X269177776Y-158562200D02*
X269130157Y-158466961D01*
X269130157Y-158466961D02*
X269130157Y-158086009D01*
X269130157Y-158086009D02*
X269177776Y-157990771D01*
X269177776Y-157990771D02*
X269273014Y-157943152D01*
X269273014Y-157943152D02*
X269463490Y-157943152D01*
X269463490Y-157943152D02*
X269558728Y-157990771D01*
X269558728Y-157990771D02*
X269606347Y-158086009D01*
X269606347Y-158086009D02*
X269606347Y-158181247D01*
X269606347Y-158181247D02*
X269130157Y-158276485D01*
X150774650Y-157609819D02*
X150584174Y-157609819D01*
X150584174Y-157609819D02*
X150488936Y-157657438D01*
X150488936Y-157657438D02*
X150441317Y-157705057D01*
X150441317Y-157705057D02*
X150346079Y-157847914D01*
X150346079Y-157847914D02*
X150298460Y-158038390D01*
X150298460Y-158038390D02*
X150298460Y-158419342D01*
X150298460Y-158419342D02*
X150346079Y-158514580D01*
X150346079Y-158514580D02*
X150393698Y-158562200D01*
X150393698Y-158562200D02*
X150488936Y-158609819D01*
X150488936Y-158609819D02*
X150679412Y-158609819D01*
X150679412Y-158609819D02*
X150774650Y-158562200D01*
X150774650Y-158562200D02*
X150822269Y-158514580D01*
X150822269Y-158514580D02*
X150869888Y-158419342D01*
X150869888Y-158419342D02*
X150869888Y-158181247D01*
X150869888Y-158181247D02*
X150822269Y-158086009D01*
X150822269Y-158086009D02*
X150774650Y-158038390D01*
X150774650Y-158038390D02*
X150679412Y-157990771D01*
X150679412Y-157990771D02*
X150488936Y-157990771D01*
X150488936Y-157990771D02*
X150393698Y-158038390D01*
X150393698Y-158038390D02*
X150346079Y-158086009D01*
X150346079Y-158086009D02*
X150298460Y-158181247D01*
X151488936Y-157609819D02*
X151584174Y-157609819D01*
X151584174Y-157609819D02*
X151679412Y-157657438D01*
X151679412Y-157657438D02*
X151727031Y-157705057D01*
X151727031Y-157705057D02*
X151774650Y-157800295D01*
X151774650Y-157800295D02*
X151822269Y-157990771D01*
X151822269Y-157990771D02*
X151822269Y-158228866D01*
X151822269Y-158228866D02*
X151774650Y-158419342D01*
X151774650Y-158419342D02*
X151727031Y-158514580D01*
X151727031Y-158514580D02*
X151679412Y-158562200D01*
X151679412Y-158562200D02*
X151584174Y-158609819D01*
X151584174Y-158609819D02*
X151488936Y-158609819D01*
X151488936Y-158609819D02*
X151393698Y-158562200D01*
X151393698Y-158562200D02*
X151346079Y-158514580D01*
X151346079Y-158514580D02*
X151298460Y-158419342D01*
X151298460Y-158419342D02*
X151250841Y-158228866D01*
X151250841Y-158228866D02*
X151250841Y-157990771D01*
X151250841Y-157990771D02*
X151298460Y-157800295D01*
X151298460Y-157800295D02*
X151346079Y-157705057D01*
X151346079Y-157705057D02*
X151393698Y-157657438D01*
X151393698Y-157657438D02*
X151488936Y-157609819D01*
X150917507Y-156927180D02*
X150869888Y-156974800D01*
X150869888Y-156974800D02*
X150727031Y-157022419D01*
X150727031Y-157022419D02*
X150631793Y-157022419D01*
X150631793Y-157022419D02*
X150488936Y-156974800D01*
X150488936Y-156974800D02*
X150393698Y-156879561D01*
X150393698Y-156879561D02*
X150346079Y-156784323D01*
X150346079Y-156784323D02*
X150298460Y-156593847D01*
X150298460Y-156593847D02*
X150298460Y-156450990D01*
X150298460Y-156450990D02*
X150346079Y-156260514D01*
X150346079Y-156260514D02*
X150393698Y-156165276D01*
X150393698Y-156165276D02*
X150488936Y-156070038D01*
X150488936Y-156070038D02*
X150631793Y-156022419D01*
X150631793Y-156022419D02*
X150727031Y-156022419D01*
X150727031Y-156022419D02*
X150869888Y-156070038D01*
X150869888Y-156070038D02*
X150917507Y-156117657D01*
X151346079Y-157022419D02*
X151346079Y-156355752D01*
X151346079Y-156022419D02*
X151298460Y-156070038D01*
X151298460Y-156070038D02*
X151346079Y-156117657D01*
X151346079Y-156117657D02*
X151393698Y-156070038D01*
X151393698Y-156070038D02*
X151346079Y-156022419D01*
X151346079Y-156022419D02*
X151346079Y-156117657D01*
X151822269Y-157022419D02*
X151822269Y-156355752D01*
X151822269Y-156546228D02*
X151869888Y-156450990D01*
X151869888Y-156450990D02*
X151917507Y-156403371D01*
X151917507Y-156403371D02*
X152012745Y-156355752D01*
X152012745Y-156355752D02*
X152107983Y-156355752D01*
X152869888Y-156974800D02*
X152774650Y-157022419D01*
X152774650Y-157022419D02*
X152584174Y-157022419D01*
X152584174Y-157022419D02*
X152488936Y-156974800D01*
X152488936Y-156974800D02*
X152441317Y-156927180D01*
X152441317Y-156927180D02*
X152393698Y-156831942D01*
X152393698Y-156831942D02*
X152393698Y-156546228D01*
X152393698Y-156546228D02*
X152441317Y-156450990D01*
X152441317Y-156450990D02*
X152488936Y-156403371D01*
X152488936Y-156403371D02*
X152584174Y-156355752D01*
X152584174Y-156355752D02*
X152774650Y-156355752D01*
X152774650Y-156355752D02*
X152869888Y-156403371D01*
X153727031Y-156355752D02*
X153727031Y-157022419D01*
X153298460Y-156355752D02*
X153298460Y-156879561D01*
X153298460Y-156879561D02*
X153346079Y-156974800D01*
X153346079Y-156974800D02*
X153441317Y-157022419D01*
X153441317Y-157022419D02*
X153584174Y-157022419D01*
X153584174Y-157022419D02*
X153679412Y-156974800D01*
X153679412Y-156974800D02*
X153727031Y-156927180D01*
X154203222Y-157022419D02*
X154203222Y-156355752D01*
X154203222Y-156022419D02*
X154155603Y-156070038D01*
X154155603Y-156070038D02*
X154203222Y-156117657D01*
X154203222Y-156117657D02*
X154250841Y-156070038D01*
X154250841Y-156070038D02*
X154203222Y-156022419D01*
X154203222Y-156022419D02*
X154203222Y-156117657D01*
X154536555Y-156355752D02*
X154917507Y-156355752D01*
X154679412Y-156022419D02*
X154679412Y-156879561D01*
X154679412Y-156879561D02*
X154727031Y-156974800D01*
X154727031Y-156974800D02*
X154822269Y-157022419D01*
X154822269Y-157022419D02*
X154917507Y-157022419D01*
X155203222Y-156974800D02*
X155298460Y-157022419D01*
X155298460Y-157022419D02*
X155488936Y-157022419D01*
X155488936Y-157022419D02*
X155584174Y-156974800D01*
X155584174Y-156974800D02*
X155631793Y-156879561D01*
X155631793Y-156879561D02*
X155631793Y-156831942D01*
X155631793Y-156831942D02*
X155584174Y-156736704D01*
X155584174Y-156736704D02*
X155488936Y-156689085D01*
X155488936Y-156689085D02*
X155346079Y-156689085D01*
X155346079Y-156689085D02*
X155250841Y-156641466D01*
X155250841Y-156641466D02*
X155203222Y-156546228D01*
X155203222Y-156546228D02*
X155203222Y-156498609D01*
X155203222Y-156498609D02*
X155250841Y-156403371D01*
X155250841Y-156403371D02*
X155346079Y-156355752D01*
X155346079Y-156355752D02*
X155488936Y-156355752D01*
X155488936Y-156355752D02*
X155584174Y-156403371D01*
X156822270Y-156022419D02*
X156822270Y-156831942D01*
X156822270Y-156831942D02*
X156869889Y-156927180D01*
X156869889Y-156927180D02*
X156917508Y-156974800D01*
X156917508Y-156974800D02*
X157012746Y-157022419D01*
X157012746Y-157022419D02*
X157203222Y-157022419D01*
X157203222Y-157022419D02*
X157298460Y-156974800D01*
X157298460Y-156974800D02*
X157346079Y-156927180D01*
X157346079Y-156927180D02*
X157393698Y-156831942D01*
X157393698Y-156831942D02*
X157393698Y-156022419D01*
X157869889Y-156355752D02*
X157869889Y-157022419D01*
X157869889Y-156450990D02*
X157917508Y-156403371D01*
X157917508Y-156403371D02*
X158012746Y-156355752D01*
X158012746Y-156355752D02*
X158155603Y-156355752D01*
X158155603Y-156355752D02*
X158250841Y-156403371D01*
X158250841Y-156403371D02*
X158298460Y-156498609D01*
X158298460Y-156498609D02*
X158298460Y-157022419D01*
X158917508Y-157022419D02*
X158822270Y-156974800D01*
X158822270Y-156974800D02*
X158774651Y-156879561D01*
X158774651Y-156879561D02*
X158774651Y-156022419D01*
X159679413Y-156974800D02*
X159584175Y-157022419D01*
X159584175Y-157022419D02*
X159393699Y-157022419D01*
X159393699Y-157022419D02*
X159298461Y-156974800D01*
X159298461Y-156974800D02*
X159250842Y-156879561D01*
X159250842Y-156879561D02*
X159250842Y-156498609D01*
X159250842Y-156498609D02*
X159298461Y-156403371D01*
X159298461Y-156403371D02*
X159393699Y-156355752D01*
X159393699Y-156355752D02*
X159584175Y-156355752D01*
X159584175Y-156355752D02*
X159679413Y-156403371D01*
X159679413Y-156403371D02*
X159727032Y-156498609D01*
X159727032Y-156498609D02*
X159727032Y-156593847D01*
X159727032Y-156593847D02*
X159250842Y-156689085D01*
X160584175Y-157022419D02*
X160584175Y-156498609D01*
X160584175Y-156498609D02*
X160536556Y-156403371D01*
X160536556Y-156403371D02*
X160441318Y-156355752D01*
X160441318Y-156355752D02*
X160250842Y-156355752D01*
X160250842Y-156355752D02*
X160155604Y-156403371D01*
X160584175Y-156974800D02*
X160488937Y-157022419D01*
X160488937Y-157022419D02*
X160250842Y-157022419D01*
X160250842Y-157022419D02*
X160155604Y-156974800D01*
X160155604Y-156974800D02*
X160107985Y-156879561D01*
X160107985Y-156879561D02*
X160107985Y-156784323D01*
X160107985Y-156784323D02*
X160155604Y-156689085D01*
X160155604Y-156689085D02*
X160250842Y-156641466D01*
X160250842Y-156641466D02*
X160488937Y-156641466D01*
X160488937Y-156641466D02*
X160584175Y-156593847D01*
X161012747Y-156974800D02*
X161107985Y-157022419D01*
X161107985Y-157022419D02*
X161298461Y-157022419D01*
X161298461Y-157022419D02*
X161393699Y-156974800D01*
X161393699Y-156974800D02*
X161441318Y-156879561D01*
X161441318Y-156879561D02*
X161441318Y-156831942D01*
X161441318Y-156831942D02*
X161393699Y-156736704D01*
X161393699Y-156736704D02*
X161298461Y-156689085D01*
X161298461Y-156689085D02*
X161155604Y-156689085D01*
X161155604Y-156689085D02*
X161060366Y-156641466D01*
X161060366Y-156641466D02*
X161012747Y-156546228D01*
X161012747Y-156546228D02*
X161012747Y-156498609D01*
X161012747Y-156498609D02*
X161060366Y-156403371D01*
X161060366Y-156403371D02*
X161155604Y-156355752D01*
X161155604Y-156355752D02*
X161298461Y-156355752D01*
X161298461Y-156355752D02*
X161393699Y-156403371D01*
X162250842Y-156974800D02*
X162155604Y-157022419D01*
X162155604Y-157022419D02*
X161965128Y-157022419D01*
X161965128Y-157022419D02*
X161869890Y-156974800D01*
X161869890Y-156974800D02*
X161822271Y-156879561D01*
X161822271Y-156879561D02*
X161822271Y-156498609D01*
X161822271Y-156498609D02*
X161869890Y-156403371D01*
X161869890Y-156403371D02*
X161965128Y-156355752D01*
X161965128Y-156355752D02*
X162155604Y-156355752D01*
X162155604Y-156355752D02*
X162250842Y-156403371D01*
X162250842Y-156403371D02*
X162298461Y-156498609D01*
X162298461Y-156498609D02*
X162298461Y-156593847D01*
X162298461Y-156593847D02*
X161822271Y-156689085D01*
X163155604Y-157022419D02*
X163155604Y-156022419D01*
X163155604Y-156974800D02*
X163060366Y-157022419D01*
X163060366Y-157022419D02*
X162869890Y-157022419D01*
X162869890Y-157022419D02*
X162774652Y-156974800D01*
X162774652Y-156974800D02*
X162727033Y-156927180D01*
X162727033Y-156927180D02*
X162679414Y-156831942D01*
X162679414Y-156831942D02*
X162679414Y-156546228D01*
X162679414Y-156546228D02*
X162727033Y-156450990D01*
X162727033Y-156450990D02*
X162774652Y-156403371D01*
X162774652Y-156403371D02*
X162869890Y-156355752D01*
X162869890Y-156355752D02*
X163060366Y-156355752D01*
X163060366Y-156355752D02*
X163155604Y-156403371D01*
D11*
X79293680Y-110268695D02*
X78484157Y-110268695D01*
X78484157Y-110268695D02*
X78388919Y-110316314D01*
X78388919Y-110316314D02*
X78341300Y-110363933D01*
X78341300Y-110363933D02*
X78293680Y-110459171D01*
X78293680Y-110459171D02*
X78293680Y-110649647D01*
X78293680Y-110649647D02*
X78341300Y-110744885D01*
X78341300Y-110744885D02*
X78388919Y-110792504D01*
X78388919Y-110792504D02*
X78484157Y-110840123D01*
X78484157Y-110840123D02*
X79293680Y-110840123D01*
X79198442Y-111268695D02*
X79246061Y-111316314D01*
X79246061Y-111316314D02*
X79293680Y-111411552D01*
X79293680Y-111411552D02*
X79293680Y-111649647D01*
X79293680Y-111649647D02*
X79246061Y-111744885D01*
X79246061Y-111744885D02*
X79198442Y-111792504D01*
X79198442Y-111792504D02*
X79103204Y-111840123D01*
X79103204Y-111840123D02*
X79007966Y-111840123D01*
X79007966Y-111840123D02*
X78865109Y-111792504D01*
X78865109Y-111792504D02*
X78293680Y-111221076D01*
X78293680Y-111221076D02*
X78293680Y-111840123D01*
%TO.C,U2*%
X83751100Y-105030600D02*
X79751100Y-105030600D01*
X79751100Y-117030600D01*
X83751100Y-117030600D01*
X83751100Y-105030600D01*
%TD*%
M02*
