<?xml version="1.0"?>
<!-- Generated by SVGo -->
<svg width="295.752mm" height="105.252mm"
     viewBox="0.000 0.000 295.752 105.252"
     xmlns="http://www.w3.org/2000/svg" 
     xmlns:xlink="http://www.w3.org/1999/xlink">
<polygon points="290.752,100.251 5.001,100.251 5.001,5.001 290.752,5.001" style="fill:none;stroke-width:0.050000mm;stroke:black"/>
<polygon points="90.869,83.726 90.869,88.426 89.344,88.426 89.344,85.196 87.619,85.196 87.619,84.275 84.319,84.275 84.319,85.196 82.594,85.196 82.594,88.426 81.769,88.426 81.769,91.226 82.594,91.226 82.594,97.495 84.319,97.495 84.319,98.476 87.619,98.476 87.619,97.495 89.344,97.495 89.344,93.025 90.869,93.025 90.869,97.726 104.869,97.726 104.869,93.025 106.394,93.025 106.394,97.495 108.119,97.495 108.119,98.476 111.419,98.476 111.419,97.495 113.144,97.495 113.144,91.226 113.969,91.226 113.969,88.426 113.144,88.426 113.144,85.196 111.419,85.196 111.419,84.275 108.119,84.275 108.119,85.196 106.394,85.196 106.394,88.426 104.869,88.426 104.869,83.726" style="fill:none;stroke-width:0.050000mm;stroke:black"/>
<polygon points="159.926,83.726 159.926,88.426 151.251,88.426 151.251,85.196 149.526,85.196 149.526,84.275 146.226,84.275 146.226,85.196 144.501,85.196 144.501,88.426 143.676,88.426 143.676,91.226 144.501,91.226 144.501,97.495 146.226,97.495 146.226,98.476 149.526,98.476 149.526,97.495 151.251,97.495 151.251,93.025 159.926,93.025 159.926,97.726 173.926,97.726 173.926,93.025 182.601,93.025 182.601,97.495 184.326,97.495 184.326,98.476 187.626,98.476 187.626,97.495 189.351,97.495 189.351,91.226 190.176,91.226 190.176,88.426 189.351,88.426 189.351,85.196 187.626,85.196 187.626,84.275 184.326,84.275 184.326,85.196 182.601,85.196 182.601,88.426 173.926,88.426 173.926,83.726" style="fill:none;stroke-width:0.050000mm;stroke:black"/>
<polygon points="9.907,83.726 9.907,97.726 23.907,97.726 23.907,83.726" style="fill:none;stroke-width:0.050000mm;stroke:black"/>
<polygon points="33.719,83.726 33.719,97.726 47.719,97.726 47.719,83.726" style="fill:none;stroke-width:0.050000mm;stroke:black"/>
<polygon points="57.532,83.726 57.532,97.726 71.532,97.726 71.532,83.726" style="fill:none;stroke-width:0.050000mm;stroke:black"/>
<polygon points="121.826,83.726 121.826,97.726 135.826,97.726 135.826,83.726" style="fill:none;stroke-width:0.050000mm;stroke:black"/>
<polygon points="198.026,83.726 198.026,97.726 212.026,97.726 212.026,83.726" style="fill:none;stroke-width:0.050000mm;stroke:black"/>
<polygon points="217.076,83.726 217.076,97.726 231.076,97.726 231.076,83.726" style="fill:none;stroke-width:0.050000mm;stroke:black"/>
<polygon points="236.126,83.726 236.126,97.726 250.126,97.726 250.126,83.726" style="fill:none;stroke-width:0.050000mm;stroke:black"/>
<polygon points="255.176,83.726 255.176,97.726 269.176,97.726 269.176,83.726" style="fill:none;stroke-width:0.050000mm;stroke:black"/>
<polygon points="274.226,83.726 274.226,97.726 288.226,97.726 288.226,83.726" style="fill:none;stroke-width:0.050000mm;stroke:black"/>
<polygon points="17.051,64.676 17.051,69.376 15.526,69.376 15.526,66.146 13.801,66.146 13.801,65.225 10.501,65.225 10.501,66.146 8.776,66.146 8.776,69.376 7.950,69.376 7.950,72.176 8.776,72.176 8.776,78.446 10.501,78.446 10.501,79.426 13.801,79.426 13.801,78.446 15.526,78.446 15.526,73.976 17.051,73.976 17.051,78.676 31.051,78.676 31.051,73.976 32.576,73.976 32.576,78.446 34.301,78.446 34.301,79.426 37.601,79.426 37.601,78.446 39.326,78.446 39.326,72.176 40.151,72.176 40.151,69.376 39.326,69.376 39.326,66.146 37.601,66.146 37.601,65.225 34.301,65.225 34.301,66.146 32.576,66.146 32.576,69.376 31.051,69.376 31.051,64.676" style="fill:none;stroke-width:0.050000mm;stroke:black"/>
<polygon points="45.626,64.676 45.626,78.676 59.626,78.676 59.626,64.676" style="fill:none;stroke-width:0.050000mm;stroke:black"/>
<polygon points="64.676,64.676 64.676,78.676 78.676,78.676 78.676,64.676" style="fill:none;stroke-width:0.050000mm;stroke:black"/>
<polygon points="83.726,64.676 83.726,78.676 97.726,78.676 97.726,64.676" style="fill:none;stroke-width:0.050000mm;stroke:black"/>
<polygon points="102.775,64.676 102.775,78.676 116.775,78.676 116.775,64.676" style="fill:none;stroke-width:0.050000mm;stroke:black"/>
<polygon points="121.825,64.676 121.825,78.676 135.826,78.676 135.826,64.676" style="fill:none;stroke-width:0.050000mm;stroke:black"/>
<polygon points="140.876,64.676 140.876,78.676 154.876,78.676 154.876,64.676" style="fill:none;stroke-width:0.050000mm;stroke:black"/>
<polygon points="159.926,64.676 159.926,78.676 173.926,78.676 173.926,64.676" style="fill:none;stroke-width:0.050000mm;stroke:black"/>
<polygon points="178.976,64.676 178.976,78.676 192.976,78.676 192.976,64.676" style="fill:none;stroke-width:0.050000mm;stroke:black"/>
<polygon points="198.026,64.676 198.026,78.676 212.026,78.676 212.026,64.676" style="fill:none;stroke-width:0.050000mm;stroke:black"/>
<polygon points="217.076,64.676 217.076,78.676 231.076,78.676 231.076,64.676" style="fill:none;stroke-width:0.050000mm;stroke:black"/>
<polygon points="236.126,64.676 236.126,78.676 250.126,78.676 250.126,64.676" style="fill:none;stroke-width:0.050000mm;stroke:black"/>
<polygon points="255.176,64.676 255.176,78.676 269.176,78.676 269.176,64.676" style="fill:none;stroke-width:0.050000mm;stroke:black"/>
<polygon points="274.226,64.676 274.226,78.676 288.226,78.676 288.226,64.676" style="fill:none;stroke-width:0.050000mm;stroke:black"/>
<polygon points="262.319,45.626 262.319,50.326 260.794,50.326 260.794,47.096 259.068,47.096 259.068,46.176 255.769,46.176 255.769,47.096 254.044,47.096 254.044,50.326 253.219,50.326 253.219,53.126 254.044,53.126 254.044,59.395 255.769,59.395 255.769,60.376 259.068,60.376 259.068,59.395 260.794,59.395 260.794,54.926 262.319,54.926 262.319,59.626 276.319,59.626 276.319,54.926 277.844,54.926 277.844,59.395 279.569,59.395 279.569,60.376 282.869,60.376 282.869,59.395 284.594,59.395 284.594,53.126 285.419,53.126 285.419,50.326 284.594,50.326 284.594,47.096 282.869,47.096 282.869,46.176 279.569,46.176 279.569,47.096 277.844,47.096 277.844,50.326 276.319,50.326 276.319,45.626" style="fill:none;stroke-width:0.050000mm;stroke:black"/>
<polygon points="14.669,45.626 14.669,59.626 28.669,59.626 28.669,45.626" style="fill:none;stroke-width:0.050000mm;stroke:black"/>
<polygon points="40.863,45.626 40.863,59.626 54.863,59.626 54.863,45.626" style="fill:none;stroke-width:0.050000mm;stroke:black"/>
<polygon points="59.913,45.626 59.913,59.626 73.913,59.626 73.913,45.626" style="fill:none;stroke-width:0.050000mm;stroke:black"/>
<polygon points="78.963,45.626 78.963,59.626 92.963,59.626 92.963,45.626" style="fill:none;stroke-width:0.050000mm;stroke:black"/>
<polygon points="98.013,45.626 98.013,59.626 112.013,59.626 112.013,45.626" style="fill:none;stroke-width:0.050000mm;stroke:black"/>
<polygon points="117.063,45.626 117.063,59.626 131.063,59.626 131.063,45.626" style="fill:none;stroke-width:0.050000mm;stroke:black"/>
<polygon points="136.113,45.626 136.113,59.626 150.113,59.626 150.113,45.626" style="fill:none;stroke-width:0.050000mm;stroke:black"/>
<polygon points="155.163,45.626 155.163,59.626 169.163,59.626 169.163,45.626" style="fill:none;stroke-width:0.050000mm;stroke:black"/>
<polygon points="174.213,45.626 174.213,59.626 188.213,59.626 188.213,45.626" style="fill:none;stroke-width:0.050000mm;stroke:black"/>
<polygon points="193.263,45.626 193.263,59.626 207.263,59.626 207.263,45.626" style="fill:none;stroke-width:0.050000mm;stroke:black"/>
<polygon points="212.313,45.626 212.313,59.626 226.313,59.626 226.313,45.626" style="fill:none;stroke-width:0.050000mm;stroke:black"/>
<polygon points="231.363,45.626 231.363,59.626 245.363,59.626 245.363,45.626" style="fill:none;stroke-width:0.050000mm;stroke:black"/>
<polygon points="12.288,26.576 12.288,40.576 26.288,40.576 26.288,26.576" style="fill:none;stroke-width:0.050000mm;stroke:black"/>
<polygon points="36.101,26.576 36.101,40.576 50.101,40.576 50.101,26.576" style="fill:none;stroke-width:0.050000mm;stroke:black"/>
<polygon points="55.151,26.576 55.151,40.576 69.151,40.576 69.151,26.576" style="fill:none;stroke-width:0.050000mm;stroke:black"/>
<polygon points="74.201,26.576 74.201,40.576 88.201,40.576 88.201,26.576" style="fill:none;stroke-width:0.050000mm;stroke:black"/>
<polygon points="93.251,26.576 93.251,40.576 107.251,40.576 107.251,26.576" style="fill:none;stroke-width:0.050000mm;stroke:black"/>
<polygon points="112.301,26.576 112.301,40.576 126.301,40.576 126.301,26.576" style="fill:none;stroke-width:0.050000mm;stroke:black"/>
<polygon points="131.351,26.576 131.351,40.576 145.351,40.576 145.351,26.576" style="fill:none;stroke-width:0.050000mm;stroke:black"/>
<polygon points="150.401,26.576 150.401,40.576 164.401,40.576 164.401,26.576" style="fill:none;stroke-width:0.050000mm;stroke:black"/>
<polygon points="169.451,26.576 169.451,40.576 183.451,40.576 183.451,26.576" style="fill:none;stroke-width:0.050000mm;stroke:black"/>
<polygon points="188.501,26.576 188.501,40.576 202.501,40.576 202.501,26.576" style="fill:none;stroke-width:0.050000mm;stroke:black"/>
<polygon points="207.551,26.576 207.551,40.576 221.551,40.576 221.551,26.576" style="fill:none;stroke-width:0.050000mm;stroke:black"/>
<polygon points="226.601,26.576 226.601,40.576 240.601,40.576 240.601,26.576" style="fill:none;stroke-width:0.050000mm;stroke:black"/>
<polygon points="245.651,26.576 245.651,40.576 259.650,40.576 259.650,26.576" style="fill:none;stroke-width:0.050000mm;stroke:black"/>
<polygon points="269.463,26.576 269.463,40.576 283.463,40.576 283.463,26.576" style="fill:none;stroke-width:0.050000mm;stroke:black"/>
<polygon points="264.701,7.526 264.701,12.226 263.176,12.226 263.176,8.996 261.451,8.996 261.451,8.075 258.150,8.075 258.150,8.996 256.426,8.996 256.426,12.226 255.601,12.226 255.601,15.026 256.426,15.026 256.426,21.296 258.150,21.296 258.150,22.276 261.451,22.276 261.451,21.296 263.176,21.296 263.176,16.826 264.701,16.826 264.701,21.526 278.701,21.526 278.701,16.826 280.226,16.826 280.226,21.296 281.951,21.296 281.951,22.276 285.251,22.276 285.251,21.296 286.976,21.296 286.976,15.026 287.801,15.026 287.801,12.226 286.976,12.226 286.976,8.996 285.251,8.996 285.251,8.075 281.951,8.075 281.951,8.996 280.226,8.996 280.226,12.226 278.701,12.226 278.701,7.526" style="fill:none;stroke-width:0.050000mm;stroke:black"/>
<polygon points="7.526,7.526 7.526,21.526 21.526,21.526 21.526,7.526" style="fill:none;stroke-width:0.050000mm;stroke:black"/>
<polygon points="26.576,7.526 26.576,21.526 40.576,21.526 40.576,7.526" style="fill:none;stroke-width:0.050000mm;stroke:black"/>
<polygon points="45.626,7.526 45.626,21.526 59.626,21.526 59.626,7.526" style="fill:none;stroke-width:0.050000mm;stroke:black"/>
<polygon points="64.676,7.526 64.676,21.526 78.676,21.526 78.676,7.526" style="fill:none;stroke-width:0.050000mm;stroke:black"/>
<polygon points="83.726,7.526 83.726,21.526 97.726,21.526 97.726,7.526" style="fill:none;stroke-width:0.050000mm;stroke:black"/>
<polygon points="102.775,7.526 102.775,21.526 116.775,21.526 116.775,7.526" style="fill:none;stroke-width:0.050000mm;stroke:black"/>
<polygon points="121.825,7.526 121.825,21.526 135.826,21.526 135.826,7.526" style="fill:none;stroke-width:0.050000mm;stroke:black"/>
<polygon points="140.876,7.526 140.876,21.526 154.876,21.526 154.876,7.526" style="fill:none;stroke-width:0.050000mm;stroke:black"/>
<polygon points="159.926,7.526 159.926,21.526 173.926,21.526 173.926,7.526" style="fill:none;stroke-width:0.050000mm;stroke:black"/>
<polygon points="178.976,7.526 178.976,21.526 192.976,21.526 192.976,7.526" style="fill:none;stroke-width:0.050000mm;stroke:black"/>
<polygon points="198.026,7.526 198.026,21.526 212.026,21.526 212.026,7.526" style="fill:none;stroke-width:0.050000mm;stroke:black"/>
<polygon points="217.076,7.526 217.076,21.526 231.076,21.526 231.076,7.526" style="fill:none;stroke-width:0.050000mm;stroke:black"/>
<polygon points="236.126,7.526 236.126,21.526 250.126,21.526 250.126,7.526" style="fill:none;stroke-width:0.050000mm;stroke:black"/>
</svg>
