%TF.GenerationSoftware,KiCad,Pcbnew,8.0.1*%
%TF.CreationDate,2024-05-19T23:00:46-06:00*%
%TF.ProjectId,BackDesign,4261636b-4465-4736-9967-6e2e6b696361,rev?*%
%TF.SameCoordinates,Original*%
%TF.FileFunction,Profile,NP*%
%FSLAX46Y46*%
G04 Gerber Fmt 4.6, Leading zero omitted, Abs format (unit mm)*
G04 Created by KiCad (PCBNEW 8.0.1) date 2024-05-19 23:00:46*
%MOMM*%
%LPD*%
G01*
G04 APERTURE LIST*
%TA.AperFunction,Profile*%
%ADD10C,0.050000*%
%TD*%
G04 APERTURE END LIST*
D10*
X53515300Y-68258200D02*
X53515300Y-161914800D01*
X338909900Y-161121100D02*
G75*
G02*
X336409900Y-161121100I-1250000J0D01*
G01*
X336409900Y-161121100D02*
G75*
G02*
X338909900Y-161121100I1250000J0D01*
G01*
X338453600Y-162708500D02*
X54309000Y-162708500D01*
X339247300Y-68258200D02*
X339247300Y-161914800D01*
X240491100Y-124610900D02*
G75*
G02*
X237991100Y-124610900I-1250000J0D01*
G01*
X237991100Y-124610900D02*
G75*
G02*
X240491100Y-124610900I1250000J0D01*
G01*
X339247300Y-161914800D02*
G75*
G02*
X338453600Y-162708500I-793699J-1D01*
G01*
X56352700Y-161121100D02*
G75*
G02*
X53852700Y-161121100I-1250000J0D01*
G01*
X53852700Y-161121100D02*
G75*
G02*
X56352700Y-161121100I1250000J0D01*
G01*
X54309000Y-67464500D02*
X338453600Y-67464500D01*
X56352700Y-69051900D02*
G75*
G02*
X53852700Y-69051900I-1250000J0D01*
G01*
X53852700Y-69051900D02*
G75*
G02*
X56352700Y-69051900I1250000J0D01*
G01*
X53515300Y-68258200D02*
G75*
G02*
X54309000Y-67464500I793699J1D01*
G01*
X338453600Y-67464500D02*
G75*
G02*
X339247300Y-68258200I1J-793699D01*
G01*
X159533700Y-94450300D02*
G75*
G02*
X157033700Y-94450300I-1250000J0D01*
G01*
X157033700Y-94450300D02*
G75*
G02*
X159533700Y-94450300I1250000J0D01*
G01*
X54309000Y-162708500D02*
G75*
G02*
X53515300Y-161914800I-1J793699D01*
G01*
X338909900Y-69051900D02*
G75*
G02*
X336409900Y-69051900I-1250000J0D01*
G01*
X336409900Y-69051900D02*
G75*
G02*
X338909900Y-69051900I1250000J0D01*
G01*
M02*
